<svg width="24" height="25" viewBox="0 0 24 25" fill="none" xmlns="http://www.w3.org/2000/svg">
<path fill-rule="evenodd" clip-rule="evenodd" d="M7 3.02539C4.79086 3.02539 3 4.81625 3 7.02539V17.0254C3 19.2345 4.79086 21.0254 7 21.0254H17C19.2091 21.0254 21 19.2345 21 17.0254V7.02539C21 4.81625 19.2091 3.02539 17 3.02539H7ZM1 7.02539C1 3.71168 3.68629 1.02539 7 1.02539H17C20.3137 1.02539 23 3.71168 23 7.02539V17.0254C23 20.3391 20.3137 23.0254 17 23.0254H7C3.68629 23.0254 1 20.3391 1 17.0254V7.02539Z" fill="#383638"/>
<path fill-rule="evenodd" clip-rule="evenodd" d="M12.4833 9.01463C11.8591 8.92207 11.2216 9.02869 10.6615 9.31931C10.1014 9.60994 9.64721 10.0698 9.36351 10.6334C9.07982 11.1971 8.98107 11.8358 9.08132 12.4588C9.18157 13.0818 9.47571 13.6573 9.9219 14.1035C10.3681 14.5497 10.9436 14.8438 11.5666 14.9441C12.1896 15.0443 12.8283 14.9456 13.392 14.6619C13.9556 14.3782 14.4155 13.924 14.7061 13.3639C14.9967 12.8038 15.1033 12.1663 15.0108 11.5421C14.9164 10.9054 14.6197 10.316 14.1645 9.86086C13.7094 9.40573 13.12 9.10905 12.4833 9.01463ZM9.74037 7.54407C10.6739 7.05969 11.7363 6.882 12.7766 7.03627C13.8378 7.19362 14.8202 7.68809 15.5788 8.44665C16.3373 9.2052 16.8318 10.1876 16.9891 11.2488C17.1434 12.2891 16.9657 13.3515 16.4813 14.285C15.997 15.2185 15.2306 15.9755 14.2912 16.4484C13.3518 16.9212 12.2872 17.0858 11.2489 16.9187C10.2105 16.7516 9.25134 16.2614 8.50768 15.5177C7.76403 14.7741 7.2738 13.8149 7.10672 12.7765C6.93964 11.7382 7.10422 10.6736 7.57704 9.73423C8.04987 8.79483 8.80687 8.02844 9.74037 7.54407Z" fill="#383638"/>
<path fill-rule="evenodd" clip-rule="evenodd" d="M16.5 6.52539C16.5 5.97311 16.9477 5.52539 17.5 5.52539H17.51C18.0623 5.52539 18.51 5.97311 18.51 6.52539C18.51 7.07768 18.0623 7.52539 17.51 7.52539H17.5C16.9477 7.52539 16.5 7.07768 16.5 6.52539Z" fill="#383638"/>
</svg>
