<svg width="24" height="25" viewBox="0 0 24 25" fill="none" xmlns="http://www.w3.org/2000/svg">
<path fill-rule="evenodd" clip-rule="evenodd" d="M16 9.02539C14.6739 9.02539 13.4021 9.55217 12.4645 10.4899C11.5268 11.4275 11 12.6993 11 14.0254V20.0254H13V14.0254C13 13.2297 13.3161 12.4667 13.8787 11.9041C14.4413 11.3415 15.2043 11.0254 16 11.0254C16.7957 11.0254 17.5587 11.3415 18.1213 11.9041C18.6839 12.4667 19 13.2297 19 14.0254V20.0254H21V14.0254C21 12.6993 20.4732 11.4275 19.5355 10.4899C18.5979 9.55218 17.3261 9.02539 16 9.02539ZM16 7.02539C14.1435 7.02539 12.363 7.76289 11.0503 9.07564C9.7375 10.3884 9 12.1689 9 14.0254V21.0254C9 21.5777 9.44772 22.0254 10 22.0254H14C14.5523 22.0254 15 21.5777 15 21.0254V14.0254C15 13.7602 15.1054 13.5058 15.2929 13.3183C15.4804 13.1307 15.7348 13.0254 16 13.0254C16.2652 13.0254 16.5196 13.1307 16.7071 13.3183C16.8946 13.5058 17 13.7602 17 14.0254V21.0254C17 21.5777 17.4477 22.0254 18 22.0254H22C22.5523 22.0254 23 21.5777 23 21.0254V14.0254C23 12.1689 22.2625 10.3884 20.9497 9.07564C19.637 7.76289 17.8565 7.02539 16 7.02539Z" fill="#383638"/>
<path fill-rule="evenodd" clip-rule="evenodd" d="M1 9.02539C1 8.47311 1.44772 8.02539 2 8.02539H6C6.55228 8.02539 7 8.47311 7 9.02539V21.0254C7 21.5777 6.55228 22.0254 6 22.0254H2C1.44772 22.0254 1 21.5777 1 21.0254V9.02539ZM3 10.0254V20.0254H5V10.0254H3Z" fill="#383638"/>
<path fill-rule="evenodd" clip-rule="evenodd" d="M4 3.02539C3.44772 3.02539 3 3.47311 3 4.02539C3 4.57768 3.44772 5.02539 4 5.02539C4.55228 5.02539 5 4.57768 5 4.02539C5 3.47311 4.55228 3.02539 4 3.02539ZM1 4.02539C1 2.36854 2.34315 1.02539 4 1.02539C5.65685 1.02539 7 2.36854 7 4.02539C7 5.68225 5.65685 7.02539 4 7.02539C2.34315 7.02539 1 5.68225 1 4.02539Z" fill="#383638"/>
</svg>
