<svg width="24" height="25" viewBox="0 0 24 25" fill="none" xmlns="http://www.w3.org/2000/svg">
<path fill-rule="evenodd" clip-rule="evenodd" d="M4 5.02539C3.45228 5.02539 3 5.47768 3 6.02539V18.0254C3 18.5731 3.45228 19.0254 4 19.0254H20C20.5477 19.0254 21 18.5731 21 18.0254V6.02539C21 5.47768 20.5477 5.02539 20 5.02539H4ZM1 6.02539C1 4.37311 2.34772 3.02539 4 3.02539H20C21.6523 3.02539 23 4.37311 23 6.02539V18.0254C23 19.6777 21.6523 21.0254 20 21.0254H4C2.34772 21.0254 1 19.6777 1 18.0254V6.02539Z" fill="#383638"/>
<path fill-rule="evenodd" clip-rule="evenodd" d="M1.18085 5.45201C1.49757 4.99956 2.1211 4.88953 2.57355 5.20624L12.0001 11.8048L21.4266 5.20624C21.8791 4.88953 22.5026 4.99956 22.8193 5.45201C23.136 5.90446 23.026 6.52799 22.5735 6.84471L12.5735 13.8447C12.2292 14.0857 11.7709 14.0857 11.4266 13.8447L1.42662 6.84471C0.974174 6.52799 0.864139 5.90446 1.18085 5.45201Z" fill="#383638"/>
</svg>
