<svg width="24" height="25" viewBox="0 0 24 25" fill="none" xmlns="http://www.w3.org/2000/svg">
<g clip-path="url(#clip0_1_568)">
<path fill-rule="evenodd" clip-rule="evenodd" d="M14.5256 2.37563C15.5744 1.97532 16.7208 1.90678 17.8099 2.17927C18.6759 2.39596 19.4724 2.81999 20.1327 3.41054C20.9449 3.11202 21.7152 2.70801 22.4237 2.20827L23.0001 3.02544L23.9717 3.26205C23.6292 4.66858 22.9426 5.965 21.977 7.03641C21.9918 7.19781 21.9996 7.35987 22.0001 7.52213L22.0001 7.52544C22.0001 13.6254 19.0632 18.1005 14.845 20.3457C10.651 22.5779 5.29097 22.5532 0.51446 19.8996C0.109649 19.6747 -0.0877967 19.2013 0.0372519 18.7554C0.162301 18.3095 0.577127 18.0078 1.03985 18.0262C2.72666 18.0933 4.39647 17.7579 5.91484 17.0584C4.41169 16.1309 3.32952 15.0297 2.57716 13.8417C1.57353 12.2571 1.19466 10.5783 1.12613 9.07084C1.05781 7.56772 1.29658 6.21433 1.54758 5.2438C1.67368 4.75621 1.80452 4.35894 1.90538 4.07997C1.95587 3.94032 1.99901 3.82985 2.03054 3.75202C2.04631 3.71309 2.0592 3.68228 2.06866 3.66003L2.08023 3.6331L2.08319 3.62635C2.09023 3.61017 2.09773 3.59412 2.10568 3.57822L3.0001 4.02544L3.81846 3.45073C4.734 4.75441 5.95775 5.81143 7.38071 6.52765C8.51256 7.09735 9.7425 7.43736 10.9998 7.53185C10.9924 6.42219 11.3221 5.3361 11.9457 4.4175C12.5762 3.48869 13.4768 2.77594 14.5256 2.37563ZM3.40475 6.06904C3.22106 6.87041 3.07437 7.88667 3.12407 8.98003C3.18055 10.2225 3.48918 11.5438 4.2668 12.7716C5.04039 13.9931 6.31614 15.1827 8.40624 16.1116C8.73805 16.2591 8.96384 16.5748 8.99614 16.9365C9.02844 17.2981 8.86216 17.6489 8.56173 17.8528C7.4508 18.6069 6.2343 19.1743 4.9602 19.5411C8.13037 20.3488 11.3071 19.9631 13.9053 18.5802C17.4366 16.7006 19.9996 12.9263 20.0001 7.5271C19.9993 7.31101 19.9785 7.09545 19.9379 6.88319C19.8752 6.55533 19.9803 6.21781 20.2179 5.98343C20.4407 5.76374 20.647 5.5296 20.8358 5.28294C20.6093 5.36649 20.3801 5.44322 20.1484 5.51297C19.7718 5.62638 19.3637 5.50847 19.1055 5.21167C18.6377 4.67376 18.016 4.2925 17.3244 4.11946C16.6328 3.94642 15.9048 3.98994 15.2388 4.24415C14.5727 4.49836 14.0009 4.95099 13.6005 5.54081C13.2001 6.13064 12.9905 6.8292 13 7.54203L13.0002 7.55544H13.0001V8.55544C13.0001 9.09762 12.568 9.54105 12.026 9.5551C10.1038 9.60494 8.19909 9.17863 6.48152 8.31412C5.33595 7.73751 4.29735 6.97792 3.40475 6.06904Z" fill="#383638"/>
</g>
<defs>
<clipPath id="clip0_1_568">
<rect width="24" height="24" fill="white" transform="translate(0 0.0253906)"/>
</clipPath>
</defs>
</svg>
